<svg xmlns="http://www.w3.org/2000/svg" viewBox="0 0 30 30" width="30px" height="30px"><path d="M 16.984375 3.9863281 A 1.0001 1.0001 0 0 0 16.019531 4.8046875 L 12.019531 24.804688 A 1.0001 1.0001 0 1 0 13.980469 25.195312 L 17.980469 5.1953125 A 1.0001 1.0001 0 0 0 16.984375 3.9863281 z M 7.2519531 7.9882812 A 1.0001 1.0001 0 0 0 6.4257812 8.421875 L 2.1835938 14.421875 A 1.0001 1.0001 0 0 0 2.1835938 15.578125 L 6.4257812 21.578125 A 1.0003738 1.0003738 0 0 0 8.0585938 20.421875 L 4.2246094 15 L 8.0585938 9.578125 A 1.0001 1.0001 0 0 0 7.2519531 7.9882812 z M 22.960938 7.9882812 A 1.0001 1.0001 0 0 0 22.183594 9.578125 L 26.017578 15 L 22.183594 20.421875 A 1.0003736 1.0003736 0 1 0 23.816406 21.578125 L 28.058594 15.578125 A 1.0001 1.0001 0 0 0 28.058594 14.421875 L 23.816406 8.421875 A 1.0001 1.0001 0 0 0 22.960938 7.9882812 z"></path></svg>