<svg xmlns="http://www.w3.org/2000/svg" viewBox="0 0 50 50" width="30px" height="30px"><path d="M 20.601562 2.0703125 C 14.873925 2.0703125 10.054687 5.9556864 10.054688 10.955078 C 10.054688 13.735355 11.611873 16.159333 13.914062 17.767578 C 13.896603 17.877431 13.917665 17.853678 13.859375 18.060547 C 13.722868 18.544735 13.444555 19.241247 12.859375 20.037109 L 11.775391 21.509766 L 13.603516 21.515625 C 16.270563 21.526445 17.770578 20.094356 18.267578 19.576172 C 19.025251 19.721308 19.795526 19.841797 20.601562 19.841797 C 22.254404 19.841797 23.826642 19.508494 25.234375 18.927734 C 26.782363 19.911553 28.69271 20.488281 30.755859 20.488281 C 31.433475 20.488281 32.079724 20.383869 32.71875 20.265625 C 33.200676 20.757569 34.480851 21.935591 36.765625 21.925781 L 38.59375 21.917969 L 37.511719 20.445312 C 37.019073 19.775472 36.785247 19.193164 36.671875 18.791016 C 36.621015 18.610607 36.63868 18.631166 36.625 18.542969 C 38.565623 17.139327 39.945313 15.111596 39.945312 12.724609 C 39.945312 8.343586 35.734415 4.9609375 30.755859 4.9609375 C 30.019235 4.9609375 29.302322 5.0390501 28.613281 5.1777344 C 26.662616 3.2654789 23.77285 2.0703125 20.601562 2.0703125 z M 20.601562 3.9296875 C 25.496847 3.9296875 29.289062 7.1694729 29.289062 10.955078 C 29.289062 14.741822 25.496962 17.982422 20.601562 17.982422 C 19.764934 17.982422 18.956502 17.887392 18.195312 17.708984 L 17.638672 17.578125 L 17.271484 18.015625 C 17.271484 18.015625 16.517981 18.869449 15.257812 19.34375 C 15.354123 19.100366 15.590665 18.769372 15.648438 18.564453 C 15.83918 17.887891 15.847656 17.373047 15.847656 17.373047 L 15.847656 16.851562 L 15.400391 16.580078 C 13.24156 15.268487 11.914062 13.226039 11.914062 10.955078 C 11.914062 7.1704701 15.705201 3.9296875 20.601562 3.9296875 z M 30.755859 6.8203125 C 34.903304 6.8203125 38.085938 9.5576335 38.085938 12.724609 C 38.085938 14.623696 36.977256 16.335705 35.154297 17.443359 L 34.707031 17.714844 L 34.707031 18.236328 C 34.707031 18.236328 34.715232 18.700321 34.882812 19.294922 C 34.900422 19.357372 34.980612 19.464509 35.001953 19.53125 C 34.248204 19.136769 33.714844 18.705078 33.714844 18.705078 L 33.347656 18.267578 L 32.791016 18.398438 C 32.147383 18.548979 31.462972 18.628906 30.755859 18.628906 C 29.464239 18.628906 28.267258 18.341461 27.220703 17.873047 C 29.601393 16.259491 31.148437 13.787164 31.148438 10.955078 C 31.148437 9.4668655 30.713631 8.0808058 29.962891 6.8632812 C 30.224071 6.8405575 30.48701 6.8203125 30.755859 6.8203125 z M 25.53125 24 C 23.364583 24 21.608133 24.542082 20.373047 25.576172 C 20.020903 25.871008 19.722865 26.209467 19.46875 26.574219 C 19.433386 26.539054 19.406291 26.498881 19.369141 26.464844 C 18.863172 26.001276 18.156063 25.734351 17.376953 25.613281 L 17.078125 25.109375 A 1.0001 1.0001 0 0 0 16.21875 24.619141 C 14.290083 24.619141 12.712753 25.103361 11.597656 26.037109 C 10.48256 26.970858 9.9042969 28.347073 9.9042969 29.804688 C 9.9042969 30.380416 10.034723 30.944101 10.152344 31.429688 C 10.203774 31.642021 10.214084 31.660508 10.255859 31.810547 C 10.065013 32.140943 9.9042969 32.559031 9.9042969 33.107422 C 9.9042969 33.82474 10.100812 34.460465 10.529297 34.888672 C 10.705681 35.064942 10.893656 35.027962 11.091797 35.111328 C 11.211631 35.569228 11.322123 36.040972 11.523438 36.417969 C 11.668323 36.689295 11.823948 36.932067 11.990234 37.146484 C 12.019954 37.184804 12.078534 37.215134 12.107422 37.251953 L 12.107422 38.533203 C 11.99936 38.758725 11.781467 38.9922 11.273438 39.261719 C 10.726042 39.552121 9.9602191 39.834867 9.15625 40.207031 C 8.3522809 40.579196 7.4946362 41.047856 6.7910156 41.804688 C 6.087395 42.561518 5.5824986 43.623778 5.5019531 44.939453 A 1.0001 1.0001 0 0 0 6.5 46 L 13.636719 46 C 13.571824 46.299492 13.522174 46.609437 13.501953 46.939453 A 1.0001 1.0001 0 0 0 14.5 48 L 35.5 48 A 1.0001 1.0001 0 0 0 36.498047 46.939453 C 36.477899 46.610639 36.426443 46.298779 36.355469 46 L 42.599609 46 A 1.0001 1.0001 0 0 0 43.597656 44.939453 C 43.517058 43.623774 43.012214 42.561518 42.308594 41.804688 C 41.604973 41.047856 40.747328 40.579196 39.943359 40.207031 C 39.13939 39.834867 38.373567 39.552121 37.826172 39.261719 C 37.318141 38.9922 37.10025 38.758725 36.992188 38.533203 L 36.992188 37.255859 C 37.021617 37.218419 37.081088 37.187389 37.111328 37.148438 C 37.277962 36.933825 37.431291 36.689425 37.576172 36.417969 C 37.777478 36.040791 37.888116 35.569366 38.007812 35.111328 C 38.206305 35.027958 38.39557 35.065248 38.572266 34.888672 C 39.000751 34.460465 39.195312 33.82474 39.195312 33.107422 C 39.195312 32.559031 39.034597 32.140943 38.84375 31.810547 C 38.88556 31.660326 38.89573 31.642496 38.947266 31.429688 C 39.06487 30.944032 39.195312 30.380164 39.195312 29.804688 C 39.195312 28.347074 38.61705 26.970858 37.501953 26.037109 C 36.386857 25.103361 34.811479 24.619141 32.882812 24.619141 A 1.0001 1.0001 0 0 0 32.023438 25.107422 L 31.722656 25.613281 C 30.943081 25.734211 30.236632 26.000974 29.730469 26.464844 C 29.663271 26.526427 29.610234 26.596936 29.548828 26.662109 C 29.538285 26.647732 29.532228 26.631475 29.521484 26.617188 C 28.93131 25.83238 27.941313 25.327898 26.783203 25.150391 L 26.390625 24.490234 A 1.0001 1.0001 0 0 0 25.53125 24 z M 25.003906 26.070312 L 25.265625 26.509766 A 1.0001 1.0001 0 0 0 26.125 27 C 27.063199 27 27.549892 27.323058 27.923828 27.820312 C 28.297764 28.317569 28.5 29.055762 28.5 29.75 C 28.5 29.997024 28.394715 30.60764 28.277344 31.091797 C 28.159972 31.575954 28.044922 31.955078 28.044922 31.955078 A 1.0001 1.0001 0 0 0 28.419922 33.0625 C 28.432977 33.081805 28.5 33.172583 28.5 33.5 C 28.5 33.958333 28.401019 34.028671 28.417969 34.011719 C 28.43492 33.994766 28.458333 34 28.375 34 A 1.0001 1.0001 0 0 0 27.380859 34.890625 C 27.339719 35.267433 27.144064 35.821286 26.914062 36.251953 C 26.799063 36.467287 26.67609 36.656203 26.582031 36.777344 C 26.487971 36.898485 26.373605 36.949205 26.539062 36.863281 A 1.0001 1.0001 0 0 0 26 37.75 L 26 40 A 1.0001 1.0001 0 0 0 26.066406 40.355469 C 26.463087 41.396157 27.3693 41.9653 28.279297 42.392578 C 29.189294 42.819857 30.197703 43.137649 31.132812 43.515625 C 32.067923 43.893601 32.915324 44.328062 33.498047 44.875 C 33.83774 45.193833 34.072761 45.567314 34.246094 46 L 15.923828 46 C 16.0793 45.615989 16.132143 45.110359 16.394531 44.828125 C 16.894364 44.290487 17.606084 43.87119 18.412109 43.498047 C 19.218134 43.124904 20.10242 42.804743 20.919922 42.371094 C 21.737423 41.937445 22.558996 41.344859 22.935547 40.355469 A 1.0001 1.0001 0 0 0 23 40 L 23 37.75 A 1.0001 1.0001 0 0 0 22.460938 36.863281 C 22.626396 36.949211 22.512029 36.898484 22.417969 36.777344 C 22.323909 36.656203 22.200937 36.467287 22.085938 36.251953 C 21.855936 35.821286 21.660277 35.267433 21.619141 34.890625 A 1.0001 1.0001 0 0 0 20.625 34 C 20.54167 34 20.565081 33.994799 20.582031 34.011719 C 20.598985 34.02867 20.5 33.958333 20.5 33.5 C 20.5 33.172583 20.567018 33.081805 20.580078 33.0625 A 1.0001 1.0001 0 0 0 20.955078 31.955078 C 20.955078 31.955078 20.840028 31.575954 20.722656 31.091797 C 20.605283 30.60764 20.5 29.997024 20.5 29.75 C 20.5 29.527991 20.525272 29.324512 20.554688 29.123047 A 1.000496 1.000496 0 0 0 20.597656 28.865234 C 20.751842 28.160214 21.097362 27.580899 21.658203 27.111328 C 22.350377 26.531798 23.491829 26.159031 25.003906 26.070312 z M 15.689453 26.689453 L 15.880859 27.009766 A 1.0001 1.0001 0 0 0 16.740234 27.5 C 17.367643 27.5 17.72958 27.67559 18.017578 27.939453 C 18.269405 28.170177 18.448237 28.512801 18.566406 28.898438 C 18.526233 29.178275 18.5 29.461511 18.5 29.75 C 18.5 30.377976 18.644715 31.01736 18.777344 31.564453 C 18.838124 31.815177 18.852184 31.841507 18.900391 32.013672 C 18.677293 32.370475 18.5 32.862561 18.5 33.5 C 18.5 34.291667 18.713516 34.971329 19.167969 35.425781 C 19.371514 35.629326 19.591026 35.595035 19.820312 35.683594 C 19.952226 36.215691 20.088323 36.757265 20.322266 37.195312 C 20.48364 37.497479 20.654856 37.768172 20.837891 38.003906 C 20.880231 38.058436 20.95841 38.098966 21 38.150391 L 21 39.701172 C 20.862453 39.999998 20.578682 40.289178 19.982422 40.605469 C 19.34858 40.941695 18.478116 41.264237 17.572266 41.683594 C 16.666416 42.10295 15.709448 42.62806 14.929688 43.466797 C 14.779047 43.628831 14.645993 43.813602 14.513672 44 L 7.921875 44 C 8.0455052 43.744688 8.0695421 43.368376 8.2558594 43.167969 C 8.67952 42.712269 9.2919378 42.349397 9.9960938 42.023438 C 10.70025 41.697477 11.479801 41.415223 12.210938 41.027344 C 12.942073 40.639464 13.69429 40.099186 14.041016 39.1875 A 1.0001 1.0001 0 0 0 14.107422 38.832031 L 14.107422 36.851562 A 1.0001 1.0001 0 0 0 13.570312 35.964844 C 13.747364 36.057264 13.648022 36.022085 13.570312 35.921875 C 13.492603 35.821667 13.387678 35.659283 13.289062 35.474609 C 13.091834 35.105262 12.924236 34.628315 12.890625 34.320312 A 1.0001 1.0001 0 0 0 11.9375 33.429688 C 11.95233 33.449897 11.904297 33.446018 11.904297 33.107422 C 11.904297 32.84645 11.953468 32.797639 11.955078 32.796875 A 1.0001 1.0001 0 0 0 12.300781 31.712891 C 12.300781 31.712891 12.200036 31.381648 12.097656 30.958984 C 11.995277 30.53632 11.904297 29.999958 11.904297 29.804688 C 11.904297 28.839301 12.222409 28.123315 12.882812 27.570312 C 13.45667 27.089782 14.419078 26.776387 15.689453 26.689453 z M 33.410156 26.689453 C 34.681351 26.776203 35.644661 27.089588 36.21875 27.570312 C 36.879153 28.123314 37.195313 28.8393 37.195312 29.804688 C 37.195312 29.999211 37.106302 30.536139 37.003906 30.958984 C 36.901511 31.38183 36.798828 31.712891 36.798828 31.712891 A 1.0001 1.0001 0 0 0 37.144531 32.798828 C 37.146731 32.800328 37.195312 32.848048 37.195312 33.107422 C 37.195312 33.446013 37.147279 33.4499 37.162109 33.429688 A 1.0001 1.0001 0 0 0 36.208984 34.320312 C 36.175304 34.629283 36.009488 35.107476 35.8125 35.476562 C 35.71401 35.661107 35.60871 35.822113 35.53125 35.921875 C 35.45379 36.021635 35.35457 36.05536 35.533203 35.962891 A 1.0001 1.0001 0 0 0 34.992188 36.851562 L 34.992188 38.832031 A 1.0001 1.0001 0 0 0 35.058594 39.1875 C 35.405319 40.099186 36.157536 40.639464 36.888672 41.027344 C 37.619808 41.415223 38.39936 41.697477 39.103516 42.023438 C 39.807672 42.349398 40.420089 42.712269 40.84375 43.167969 C 41.030067 43.368376 41.054104 43.744688 41.177734 44 L 35.384766 44 C 35.22156 43.793001 35.051904 43.593175 34.865234 43.417969 C 33.980864 42.587907 32.909579 42.077133 31.882812 41.662109 C 30.856047 41.247085 29.857753 40.924253 29.128906 40.582031 C 28.440744 40.258913 28.123782 39.954842 28 39.697266 L 28 38.150391 C 28.04159 38.098961 28.119769 38.058441 28.162109 38.003906 C 28.345144 37.768172 28.51636 37.497479 28.677734 37.195312 C 28.911677 36.757266 29.047773 36.215691 29.179688 35.683594 C 29.408973 35.595034 29.628486 35.629324 29.832031 35.425781 C 30.286484 34.971329 30.5 34.291667 30.5 33.5 C 30.5 32.862561 30.322707 32.370475 30.099609 32.013672 C 30.147809 31.841507 30.161879 31.815177 30.222656 31.564453 C 30.355285 31.01736 30.5 30.377976 30.5 29.75 C 30.5 29.539342 30.47995 29.324281 30.457031 29.109375 A 1.0002672 1.0002672 0 0 0 30.472656 29.054688 C 30.582333 28.597263 30.79423 28.203206 31.082031 27.939453 C 31.369832 27.6757 31.730013 27.5 32.357422 27.5 A 1.0001 1.0001 0 0 0 33.216797 27.011719 L 33.410156 26.689453 z"></path></svg>